<?xml version="1.0" encoding="utf-8"?>
<!-- Generator: Adobe Illustrator 27.5.0, SVG Export Plug-In . SVG Version: 6.00 Build 0)  -->
<svg version="1.1" xmlns="http://www.w3.org/2000/svg" xmlns:xlink="http://www.w3.org/1999/xlink" x="0px" y="0px"
	 viewBox="0 0 500 500" style="enable-background:new 0 0 500 500;" xml:space="preserve">
<g id="BACKGROUND">
	<rect style="fill:#FFFFFF;" width="500" height="500"/>
</g>
<g id="OBJECTS">
	<g>
		<defs>
			<rect id="SVGID_1_" width="500" height="500"/>
		</defs>
		<clipPath id="SVGID_00000150096197621140654510000008009585905559378873_">
			<use xlink:href="#SVGID_1_"  style="overflow:visible;"/>
		</clipPath>
		<g style="clip-path:url(#SVGID_00000150096197621140654510000008009585905559378873_);">
			<g>
				<polygon points="307.299,548.234 285.534,425.604 283.2,425.987 304.902,548.234 				"/>
			</g>
			<g>
				<polygon points="192.328,548.234 214.03,425.987 211.696,425.604 189.931,548.234 				"/>
			</g>
		</g>
		<path style="clip-path:url(#SVGID_00000150096197621140654510000008009585905559378873_);fill:#EDBF34;" d="M315.9,407.954
			l4.497-83.647c-0.978-39.098-15.184-78.372-54.294-78.372H240.2c-37.917,1.126-55.95,36.555-56.687,75.833l-4.88,87.368
			L315.9,407.954z"/>
		<path style="clip-path:url(#SVGID_00000150096197621140654510000008009585905559378873_);fill:#FFE6E6;" d="M447.686,230.589
			c-9.296,23.077-27.738,39.739-50.133,49.854c-26.022,11.753-51.363,11.583-79.278,14.939c-24.181,2.907-48.528,4.437-72.883,4.595
			c-37.749,0.245-75.52-2.808-112.734-9.144c-16.945-2.885-30.989-4.536-44.966-14.583c-13.517-9.716-26.508-20.873-34.703-35.612
			c-14.439-25.967-11.456-58.225-2.948-86.693c6.397-21.406,16.035-42.475,32.131-57.97
			c49.487-47.639,131.154-42.944,194.759-42.253c26.066,0.283,52.369,1.676,77.509,8.567c33.085,9.069,69.089,28.347,88.046,57.976
			C461.11,149.378,460.309,199.251,447.686,230.589z"/>
		
			<circle style="clip-path:url(#SVGID_00000150096197621140654510000008009585905559378873_);fill:#E8B5B5;" cx="183.398" cy="92.907" r="44.768"/>
		
			<circle style="clip-path:url(#SVGID_00000150096197621140654510000008009585905559378873_);fill:#E8B5B5;" cx="84.571" cy="145.277" r="44.768"/>
		<path style="clip-path:url(#SVGID_00000150096197621140654510000008009585905559378873_);fill:#EDBF34;" d="M328.447,428.109
			c-0.013,0-156.756,0-157.082,0c-7.261,0-14.544-8.796-10.996-15.682c1.932-3.75,5.632-6.205,9.176-8.492
			c7.666-4.948,15.482-9.965,24.271-12.416c9.131-2.546,18.775-2.178,28.254-2.291c18.76-0.224,37.439-2.41,56.026-4.958
			c6.054-0.83,12.315-1.686,18.191-0.009c4.177,1.192,7.888,3.595,11.528,5.965c4.52,2.943,9.039,5.885,13.56,8.828
			c5.348,3.482,12.571,9.079,15.045,15.275C338.757,420.184,335.521,428.109,328.447,428.109z"/>
		<g style="clip-path:url(#SVGID_00000150096197621140654510000008009585905559378873_);">
			
				<line style="fill:none;stroke:#222221;stroke-linecap:round;stroke-linejoin:round;stroke-miterlimit:10;" x1="171.875" y1="411.117" x2="324.668" y2="411.117"/>
			<path d="M204.412,388.251c10.683-1.27,21.485-0.309,32.235,0.1c6.961,0.265,13.939,0.298,20.869,0.998
				c2.828,0.286,5.664,0.505,8.472,0.957c2.418,0.389,4.572,1.446,6.942,1.762c6.343,0.847,12.628,1.293,18.912,2.645
				c2.617,0.563,5.232,1.212,7.681,2.294c2.073,0.916,3.999,2.13,5.916,3.34c1.906,1.202,4.059,2.881,3.83,5.123
				c-0.134,1.315-1.16,2.442-2.401,2.896c-1.242,0.454-2.649,0.3-3.867-0.214c-1.199-0.506-2.231-1.334-3.373-1.958
				c-1.118-0.61-2.312-0.721-3.45-1.187c-0.967-0.396-1.851-1.34-2.905-1.487c-0.728-0.102-1.584,0.325-1.675,1.054
				c-0.048,0.387,0.12,0.762,0.248,1.13c0.257,0.743,0.344,1.608-0.063,2.28c-0.679,1.12-2.27,1.136-3.574,1.016
				c-3.049-0.279-6.099-0.558-9.148-0.837c-2.808-0.257-4.977,0.859-7.705,1.136c-2.2,0.223-4.424-0.13-6.63,0.016
				c-7.126,0.472-20.255,0.299-44.679-4.139c-3.353-0.67-6.716-1.342-10.125-1.614c-6.178-0.492-12.341-0.771-18.552-1.164
				c-4.648-0.294-9.395-1.118-13.369-3.548c1.902-3.452,6.079-4.78,9.759-6.192c2.56-0.982,4.974-2.472,7.596-3.232
				C198.357,388.558,201.342,388.616,204.412,388.251z"/>
			<path style="fill:#E36D78;" d="M299.545,377.565c1.487,3.278,2.007,6.948,3.661,10.146c2.223,4.299,6.195,7.224,9.888,10.179
				c2.067,1.654,4.253,3.167,6.093,5.088c1.378,1.439,3.93,5.924-0.302,5.217c0.138,0.91,0.283,1.942-0.245,2.776
				c-0.52,0.822-1.864,1.134-2.463,0.368c0.208,1.099,0.317,2.294-0.202,3.285c-0.519,0.991-1.887,1.601-2.806,0.963
				c0.179,1.519,0.287,3.263-0.777,4.363c-1.032,1.066-2.855,1.031-4.101,0.225c-1.246-0.806-1.994-2.199-2.443-3.614
				c-0.449-1.414-0.651-2.897-1.095-4.313c-1.889-6.013-8.373-9.683-13.374-12.868c-4.565-2.908-8.596-5.339-14.101-4.976
				c-5.754,0.38-11.329,2.021-16.907,3.369c-1.74,0.421-3.581,0.813-5.296,0.299c-2.079-0.623-3.545-2.44-4.823-4.195
				c-0.986-1.353-1.967-2.782-2.288-4.426c-0.715-3.661,2.17-7.236,5.609-8.678c3.44-1.443,7.303-1.304,11.033-1.304
				c2.394,0,4.845-0.069,7.172-0.693c2.377-0.637,3.881-2.297,6.157-3.055C285.52,373.194,295.12,367.808,299.545,377.565z"/>
			<path d="M238.59,220.428c0.181,0.51,0.354,1.023,0.41,1.553c0.133,1.257-0.383,2.613,0.174,3.747
				c0.52,1.06,1.788,1.509,2.955,1.691c4.785,0.745,9.552-1.298,14.39-1.496c3.245-0.133,6.467,0.567,9.714,0.63
				c0.663,0.013,1.345-0.004,1.959-0.256c1.135-0.465,1.294-1.491,1.466-2.566c0.229-1.426,0.617-2.821,0.867-4.243
				c0.441-2.501,0.461-5.119-0.244-7.553c-1.48-5.108-5.762-9.711-10.984-11.008c-1.418-0.352-2.892-0.387-4.353-0.419
				c-1.351-0.03-2.708-0.06-4.051,0.098c-1.682,0.199-3.314,0.69-4.936,1.178c-1.209,0.364-2.418,0.729-3.627,1.093
				c-0.561,0.169-1.139,0.347-1.589,0.723c-0.386,0.323-0.647,0.768-0.879,1.214c-1.02,1.966-1.61,4.121-2.192,6.258
				c-0.131,0.48-0.263,0.973-0.215,1.469c0.103,1.079,1.03,1.952,1.105,3.034c0.058,0.835-0.405,1.621-0.48,2.455
				C238.006,218.855,238.309,219.637,238.59,220.428z"/>
			<path style="fill:#61BA89;" d="M276.57,346.379c-3.51-2.01-7.377-3.172-11.54-3.6c-6.526-0.671-13.097,0.221-19.652,0.499
				c-1.7,0.072-3.424,0.1-5.078-0.301c-2.023-0.49-3.85-1.601-5.863-2.135c-4.311-1.144-8.829,0.466-13.287,0.608
				c-2.152,0.068-4.326-0.207-6.447,0.16c-2.012,0.348-3.876,1.256-5.809,1.917c-4.495,1.536-9.327,1.719-14.077,1.778
				c-3.286,0.041-6.594,0.033-9.828,0.616c-3.873,0.698-7.54,2.225-11.171,3.742c-3.413,1.425-7.034,3.02-9.027,6.135
				c-1.779,2.779-1.93,6.285-1.689,9.575c0.197,2.686,0.95,5.81,3.437,6.845c1.949,0.811,4.118,1.045,6.105,1.849
				c2.322,0.94,4.633,1.672,7.101,2.146c3.547,0.681,6.677,1.835,10.141,2.593c1.875,0.41,3.83,0.627,5.537,1.505
				c0.986,0.507,1.852,1.218,2.791,1.808c4.138,2.602,9.905,2.056,14.62,2.451c19.863,1.661,24.622-1.746,44.035,2.775
				c4.893,1.14,17.12,0.317,26.673-1.29c0-8.175,0-16.349,0-24.524c0-5.008,0.933-9.142-3.175-12.525
				C279.152,348.007,277.886,347.133,276.57,346.379z"/>
			<path style="fill:#E36D78;" d="M267.303,263.94c0.212-0.271,0.396-0.54,0.538-0.796c0.905-1.623-0.423-4.154-1.041-5.665
				c-2.01-4.911-3.038-10.221-3.007-15.526c0.003-0.583,0.021-1.174,0.193-1.731c0.538-1.745,1.922-2.793,2.256-4.622
				c0.418-2.286,0.969-4.479,1.144-6.813c0.161-2.153,0.063-4.285,0.092-6.439c0.039-2.786-0.065-5.572-0.33-8.344
				c-0.071-0.747-0.158-1.531-0.552-2.161c-1.09-1.743-4.426-2.275-6.06-3.589c-2.339-1.88-5.002,0.084-7.656,0.757
				c-3.066,0.778-6.199,1.268-9.348,1.462c-0.548,0.034-1.111,0.062-1.612,0.295c-1.374,0.639-1.736,2.471-1.872,4.036
				c-0.35,4.034-0.308,8.108,0.073,12.138c0.284,2.999,0.466,6.063,1.372,8.956c0.417,1.334,1.289,2.485,1.693,3.787
				c0.488,1.574,0.224,3.375-0.06,4.956c-0.896,4.972-1.941,9.942-3.714,14.673c-0.265,0.708-0.55,1.427-0.586,2.182
				c-0.096,2.033,2.726,3.148,4.287,3.908c2.094,1.019,4.377,1.623,6.679,1.932c3.47,0.465,6.991,0.284,10.483,0.036
				c1.367-0.097,2.773-0.215,3.997-0.832C265.262,266.04,266.493,264.974,267.303,263.94z"/>
			<path style="fill:#2775D9;" d="M279.641,262.138c-0.021,0.22-6.001-1.066-6.534-1.214c-1.148-0.32-2.359-0.549-3.413-1.131
				c-1.17-0.646-2.067-1.797-3.019-2.72c-1.737,1.739-4.183,2.563-6.587,3.073c-5.047,1.071-10.334,0.998-15.349-0.213
				c-1.26-0.304-2.856-0.689-3.75-1.698c-0.944-1.067-1.285-1.394-2.915-1.045c-5.006,1.071-9.921,2.565-14.676,4.46
				c0.785-0.313,3.244,2.126,3.728,2.64c1.1,1.168,2.173,2.344,3.164,3.616c1.802,2.313,3.059,4.823,2.903,7.803
				c-0.163,3.112-0.975,6.222-2.207,9.089c-1.575,3.664-3.825,5.423-6.929,7.728c-3.159,2.345-2.505,5.026-2.539,8.775
				c-0.049,6.307-1.029,12.504-2.003,18.717c-0.84,5.359-0.561,11.15-0.939,16.629c-0.073,1.059-0.189,2.216-0.937,2.969
				c-0.414,0.416-0.981,0.66-1.371,1.099c-0.39,0.439-0.503,1.236-0.002,1.543c3.203,0.514,6.458,1.044,9.38,2.453
				c2.546,1.228,4.742,3.078,7.232,4.414c4.893,2.626,10.66,3.128,16.204,2.822c5.545-0.307,11.028-1.366,16.573-1.65
				c3.961-0.203,7.994-0.018,11.828-1.037c3.033-0.806,5.816-2.335,8.564-3.849c1.654-0.911,3.308-1.823,4.961-2.734
				c0.881-0.485,1.82-1.032,2.226-1.952c0.48-1.086-1.146-3.737-1.273-5.1c-0.259-2.768-0.487-5.537-0.988-8.275
				c-0.482-2.63-1.188-5.214-1.682-7.842c-0.974-5.174-1.117-10.464-1.256-15.727c-0.09-3.419-0.305-7.279-1.188-10.61
				c-1.093-4.124-3.814-8.13-5.722-11.927c-1.318-2.624-2.641-5.258-3.611-8.03c-0.715-2.041-1.445-3.924-0.821-6.004
				C277.221,265.45,279.47,263.917,279.641,262.138z"/>
			<path d="M257.347,213.43c2.154-0.101,4.321,0.077,6.434,0.529c0.524,0.112,1.074,0.258,1.451,0.655
				c0.349,0.368,0.492,0.892,0.608,1.395c0.605,2.618,0.833,5.332,0.673,8.02c-0.015,0.251,0.931,0.654,1.158,0.635
				c0.387-0.032,0.565-0.265,0.755-0.579c0.584-0.967,0.498-2.511,0.517-3.59c0.062-3.447,0.03-7.122-0.653-10.498
				c-0.126-0.623-0.29-1.242-0.554-1.821c-0.854-1.868-2.81-3.179-4.863-3.26c-0.966-0.038-1.953,0.173-2.892-0.06
				c-0.503-0.125-0.974-0.378-1.356-0.728c-0.536-0.491-0.921-1.182-1.589-1.468c-1.277-0.547-2.755,0.688-4.084,0.282
				c-1.46-0.445-1.854-2.566-3.303-3.045c-0.992-0.328-2.023,0.255-2.971,0.693c-0.957,0.442-1.887,0.571-2.791,0.002
				c-0.902-0.569-1.673-0.793-2.804-0.65c-1.395,0.177-2.734,0.776-3.795,1.699c-0.851,0.74-1.559,1.828-1.343,2.935
				c0.24,1.231,1.564,2.296,1.147,3.478c-0.112,0.318-0.341,0.579-0.523,0.864c-0.747,1.173-0.599,2.841,0.343,3.865
				c0.88,0.957,1.966,2.208,1.614,3.679c-0.247,1.035-1.432,1.712-1.49,2.774c-0.056,1.038,1.014,1.913,0.879,2.943
				c-0.067,0.509-0.426,0.956-0.439,1.47c-0.019,0.773,0.834,1.37,1.599,1.263c0.765-0.108,1.372-0.748,1.655-1.468
				c0.316-0.801,0.869-8.646,0.968-8.627c4.913,0.929,9.876-0.945,14.854-1.337C256.818,213.46,257.082,213.443,257.347,213.43z"/>
			<path style="fill:#61BA89;" d="M269.869,371.472c-0.859-1.314-3.224-0.47-4.987-0.288c-2.838,0.292-5.669,0.658-8.521,0.787
				c-2.492,0.113-4.724-0.101-7.097-0.592c-2.558-0.529-5.717-0.183-8.32-0.073c-1.419,0.06-2.681-0.18-4.093-0.501
				c-1.46-0.332-3.306-1.203-4.788-1.203c-5.209-1.37-10.418-2.739-15.627-4.108c-1.539-0.405-3.084-0.811-4.554-1.422
				c-3.543-1.471-7.007-3.004-10.83-3.564c-4.281-0.628-8.641-0.559-12.943-0.209c-4.551,0.369-8.725,0.279-13.184-0.356
				c-3.83-0.546-8.273-0.581-11.426,2.004c-2.868,2.352-3.88,6.242-4.587,9.884c-0.337,1.733-0.643,3.496-0.491,5.254
				c0.124,1.439,0.552,2.834,1.04,4.194c1.437,4.002,3.424,7.803,5.88,11.274c2.57,3.63,6.132,4.181,10.395,4.959
				c15.986,2.919,32.464,3.833,48.595,6.072c7.243,1.006,14.49,1.981,21.75,2.857c3.284,0.397,6.147,1.111,9.468,0.723
				c3.804-0.444,7.537-1.497,11.007-3.117c-0.012-1.964-0.024-3.928-0.036-5.892c-0.006-1.014-0.01-2.046,0.283-3.017
				c0.36-1.194,1.15-2.226,1.494-3.424c0.251-0.874,0.255-1.798,0.376-2.699c0.254-1.892,1.024-3.672,1.488-5.524
				c0.476-1.903,0.078-3.278-0.077-5.133c-0.151-1.8,0.149-3.756,0.114-5.586C270.186,372.197,270.068,371.776,269.869,371.472z"/>
			<path style="fill:#FFFFFF;" d="M248.642,234.428c1.393,1.273,3.241,1.989,5.091,1.97c1.85-0.019,3.684-0.771,5.053-2.072"/>
			<path style="fill:none;stroke:#222221;stroke-linecap:round;stroke-linejoin:round;stroke-miterlimit:10;" d="M202.697,359.74
				c-9.02-0.288-19.596,0.931-28.114,3.913"/>
			<path style="fill:#E36D78;" d="M266.808,229.729c2.681,0.999,5.709-1.235,4.582-4.758c-0.721-2.256-2.546-3.388-4.518-2.805
				c-1.245-0.139-1.665,0.947-1.791,2.393c0.453,0.777,0.157,2.041,0.488,2.897C265.903,228.324,266.029,229.439,266.808,229.729z"
				/>
			<path style="fill:#E36D78;" d="M239.875,229.968c1.277,0.176,2.723-0.264,3.84-1.001c0.314-0.207,0.618-0.447,0.823-0.771
				c0.277-0.439,0.343-0.984,0.397-1.507c0.098-0.942,0.173-1.955-0.273-2.781c-0.423-0.785-1.231-1.241-1.997-1.655
				c-1.654-0.896-4.193-0.09-5.256,1.445C235.79,226.034,237.08,229.583,239.875,229.968z"/>
			<path style="fill:#E36D78;" d="M211.93,340.194c-0.813,1.5-1.728,2.959-2.757,4.37c-2.333,3.199-5.817,4.815-9.709,5.098
				c-3.725,0.271-8.177,1.046-9.235-3.279c-1.402-5.734-0.98-11.74-0.403-17.615c0.439-4.472,0.962-8.936,1.569-13.388
				c1.208-8.863,3.033-18.267,9.27-24.679c1.71-1.758,3.982-3.312,6.418-3.026c1.685,0.198,3.137,1.244,4.455,2.311
				c3.993,3.231,8.317,7.893,9.201,13.166c0.909,5.418-2.44,12.2-3.101,17.603C216.8,327.596,215.17,334.22,211.93,340.194z"/>
			<path d="M199.662,312.618c2.943,0.745,5.923,1.628,8.927,2.077c2.867,0.428,5.794,0.622,8.5,1.756
				c0.447,0.187,0.869,0.411,1.282,0.65c1.174-4.606,3.08-9.696,2.367-13.948c-0.884-5.273-5.208-9.935-9.201-13.166
				c-1.319-1.067-2.771-2.113-4.455-2.311c-2.435-0.286-4.708,1.268-6.418,3.026c-5.104,5.248-7.253,12.499-8.527,19.818
				C194.627,311.282,197.137,311.978,199.662,312.618z"/>
			<path style="fill:#2775D9;" d="M235.281,259.758c-0.208-0.215-0.415-0.429-0.623-0.644c-0.126-0.131-0.257-0.264-0.42-0.343
				c-0.314-0.152,0.656-0.808,0.316-0.73c-6.807,1.564-15.124,4.053-21.306,7.35c-3.106,1.657-6.096,3.612-8.509,6.176
				c-4.787,5.086-8.047,11.859-10.47,18.333c-2.265,6.051-4.531,12.102-6.796,18.153c3.639,1.929,7.832,2.464,11.92,2.966
				c1.928,0.237,3.857,0.474,5.785,0.711c6.035,0.742,12.154,1.484,18.174,0.629c0.458-0.065,0.938-0.149,1.294-0.444
				c0.578-0.477,0.336-2.483,0.478-3.243c0.288-1.54,0.62-3.071,0.995-4.592c0.777-3.15,1.738-6.255,2.877-9.293
				c1.974-5.267,4.597-10.065,6.058-15.522c0.5-1.869,0.962-3.789,1.579-5.802c0.781-2.55,1.369-5.191,1.262-7.873
				c-0.057-1.422-0.211-3.351-1.263-4.438C236.182,260.688,235.731,260.223,235.281,259.758z"/>
			<path style="fill:none;stroke:#222221;stroke-linecap:round;stroke-linejoin:round;stroke-miterlimit:10;" d="M220.324,312.693
				c0.645-4.134,4.158-12.105,4.803-16.239"/>
			<path style="fill:#2775D9;" d="M276.865,291.966c2.25-0.613,2.881,0.403,3.881,2.037c1.645,2.688,2.29,6.048,2.898,9.096
				c0.477,2.39,1.051,6.122,1.004,8.439c10.379-1.497,19.662-5.696,29.748-8.563c-5.223-17.939-10.133-39.228-36.993-41.116
				c-2.28-0.16-3.977-0.018-5.592-0.456c-0.8,10.574-0.473,21.15,0.714,31.664C273.932,292.673,275.386,292.369,276.865,291.966z"/>
			<g>
				<path style="fill:#E36D78;" d="M238.64,303.071c0.416-1.286,1.654-1.999,2.975-1.689c2.49,0.585,4.912,1.506,7.177,2.692
					c1.056,0.553,2.077,1.174,3.053,1.859c0.59,0.414,1.168,0.851,1.73,1.302c0.97,0.779,1.302,1.87,1.073,3.081
					c-0.236,1.246-1.803,2.068-2.975,1.689c-0.747-0.242-1.258-0.734-1.526-1.352c-0.142-0.107-0.284-0.215-0.428-0.319
					c-0.418-0.302-0.844-0.592-1.278-0.87c-0.869-0.556-1.768-1.064-2.693-1.52c-0.231-0.114-0.464-0.225-0.698-0.332
					c-0.051-0.023-0.273-0.122-0.408-0.183c-0.442-0.187-0.891-0.358-1.343-0.518c-0.973-0.344-1.964-0.629-2.969-0.865
					C239.096,305.757,238.248,304.281,238.64,303.071z"/>
				<path style="fill:#E36D78;" d="M318.892,339.904c0.368-2.057,0.737-4.113,1.054-6.178c0.51-3.321,0.918-6.692,1.599-9.993
					c-1.093-1.527-2.445-2.884-3.951-3.953c-4.92-3.492-11.074-4.645-17.013-5.711c-11.197-2.009-22.394-4.019-33.591-6.028
					c-4.469-0.802-21.58-4.546-23.551,2.427c-0.053,0.187-0.084,0.382-0.093,0.586c-0.119,2.857,6.208,7.863,8.123,9.702
					c3.219,3.092,6.688,5.923,10.354,8.47c10.12,7.032,21.728,11.916,33.831,14.236c6.768,1.298,16.405,2.408,22.739-1.545
					C318.561,341.247,318.72,340.574,318.892,339.904z"/>
				<path style="fill:#FFFFFF;" d="M219.33,302.113c0.613,2.26,2.601,3.589,4.828,3.936c1.201,0.187,2.4,0.168,3.611,0.16
					c0.499-0.003,0.997-0.006,1.496-0.009l0.151,1.1c0.589,4.282,4.248,7.473,8.571,7.473l0,0c4.323,0,7.982-3.19,8.571-7.473
					l2.256-16.395c0.092-0.67-0.428-1.267-1.104-1.267h-19.445c-0.676,0-1.196,0.597-1.104,1.267l0.427,3.104
					c-0.234-0.031-0.467-0.065-0.705-0.078c-2.168-0.12-4.457,0.639-5.981,2.22C219.405,297.704,218.761,300.015,219.33,302.113z
					 M222.895,301.987c-0.03-0.06-0.119-0.25-0.144-0.288c-0.097-0.274-0.174-0.56-0.221-0.846c-0.002-0.071-0.015-0.254-0.016-0.32
					c-0.001-0.143,0.009-0.286,0.021-0.429c0.012-0.043,0.05-0.268,0.068-0.338c0.037-0.145,0.085-0.288,0.137-0.428
					c0.021-0.024,0.15-0.295,0.194-0.366c0.04-0.065,0.083-0.129,0.125-0.192c0.015-0.022,0.01-0.017,0.017-0.028
					c0.01-0.011,0.009-0.007,0.03-0.031c0.112-0.129,0.229-0.253,0.354-0.371c0.04-0.038,0.254-0.209,0.292-0.244
					c1.163-0.806,2.581-1.115,4.004-0.904c0.094,0.014,0.185,0.039,0.278,0.057l0.765,5.561c-0.305,0.018-0.61,0.036-0.915,0.055
					c-1.066,0.064-2.146,0.169-3.214,0.082c-0.621-0.051-1.16-0.289-1.586-0.706c-0.033-0.033-0.111-0.142-0.124-0.159
					C222.938,302.056,222.914,302.023,222.895,301.987z"/>
				<path style="fill:#E36D78;" d="M253.501,312.783c-0.264-1.302-0.919-2.513-1.798-3.503c-0.453-0.51-0.969-0.966-1.535-1.348
					c-0.256-0.173-0.669-0.35-0.846-0.611c-0.183-0.269-0.227-0.73-0.323-1.045c-0.124-0.407-0.29-0.864-0.684-1.025
					c-0.317-0.13-0.676-0.021-1.004,0.078c-1.771,0.532-3.641,0.726-5.484,0.579c-0.873-0.07-1.722-0.282-2.581-0.396
					c-0.988-0.131-1.983-0.189-2.975-0.28c-2.449-0.226-4.885-0.593-7.292-1.099c-1.251-0.263-1.779,1.572-0.532,1.928
					c2.425,0.693,4.903,1.305,7.414,1.567c-0.096,0.318-0.191,0.638-0.283,0.959c-1.137-0.206-2.272-0.428-3.4-0.682
					c-1.774-0.4-3.681-0.744-5.315-1.571c-1.149-0.559-2.164,1.143-1.01,1.727c2.904,1.412,6.042,2.264,9.243,2.513
					c-0.05,0.263-0.092,0.527-0.128,0.792c-2.158-0.248-4.279-0.734-6.337-1.435c-0.667-0.24-1.332-0.484-1.991-0.746
					c-0.502-0.2-1.098,0.218-1.23,0.698c-0.158,0.576,0.198,1.021,0.698,1.23c0.644,0.269,1.298,0.508,1.957,0.733
					c0.09,0.033,0.183,0.058,0.274,0.09c-0.006,0.159,0.016,0.324,0.103,0.497c0.433,0.866,1.239,1.445,2.093,1.855
					c0.99,0.475,2.024,0.876,3.057,1.247c2.411,0.865,4.844,1.502,7.393,1.784c2.347,0.26,4.705,0.425,7.066,0.495
					c1.883,0.056,4.144-0.04,5.188-1.889C253.769,314.99,253.715,313.836,253.501,312.783z"/>
				<path style="fill:none;stroke:#222221;stroke-linecap:round;stroke-linejoin:round;stroke-miterlimit:10;" d="M284.424,292.483
					c-0.056,1.517,0.532,2.971,0.98,4.421c0.994,3.217,1.325,6.595,1.65,9.946"/>
				<path d="M319.163,332.733c0.01-0.059,0.021-0.119,0.031-0.178c0.552-3.338,0.885-6.689,1.407-10.014
					c-0.895-1.041-1.907-1.98-3.007-2.76c-4.92-3.492-11.074-4.645-17.013-5.711c-7.981-1.432-15.963-2.865-23.944-4.297
					c-2.531,4.235-6.344,7.748-9.744,11.238c-2.263,2.323-4.606,4.559-7.116,6.589c-0.027,0.029-0.053,0.058-0.08,0.087
					c0.701,0.525,1.407,1.041,2.126,1.541c10.12,7.032,21.728,11.916,33.831,14.236c6.164,1.182,14.709,2.208,20.971-0.604
					C317.41,339.469,318.275,336.098,319.163,332.733z"/>
			</g>
			<path style="fill:none;stroke:#222221;stroke-linecap:round;stroke-linejoin:round;stroke-miterlimit:10;" d="M164.715,382.876
				c0.585,2.148,1.688,4.152,3.189,5.796"/>
			<g>
				<defs>
					<path id="SVGID_00000015353748258411866400000008010982800835618714_" d="M267.303,263.94c0.212-0.271,0.396-0.54,0.538-0.796
						c0.905-1.623-0.423-4.154-1.041-5.665c-2.01-4.911-3.038-10.221-3.007-15.526c0.003-0.583,0.021-1.174,0.193-1.731
						c0.538-1.745,1.922-2.793,2.256-4.622c0.418-2.286,0.969-4.479,1.144-6.813c0.161-2.153,0.063-4.285,0.092-6.439
						c0.039-2.786-0.065-5.572-0.33-8.344c-0.071-0.747-0.158-1.531-0.552-2.161c-1.09-1.743-4.426-2.275-6.06-3.589
						c-2.339-1.88-5.002,0.084-7.656,0.757c-3.066,0.778-6.199,1.268-9.348,1.462c-0.548,0.034-1.111,0.062-1.612,0.295
						c-1.374,0.639-1.736,2.471-1.872,4.036c-0.35,4.034-0.308,8.108,0.073,12.138c0.284,2.999,0.466,6.063,1.372,8.956
						c0.417,1.334,1.289,2.485,1.693,3.787c0.488,1.574,0.224,3.375-0.06,4.956c-0.896,4.972-1.941,9.942-3.714,14.673
						c-0.265,0.708-0.55,1.427-0.586,2.182c-0.096,2.033,2.726,3.148,4.287,3.908c2.094,1.019,4.377,1.623,6.679,1.932
						c3.47,0.465,6.991,0.284,10.483,0.036c1.367-0.097,2.773-0.215,3.997-0.832C265.262,266.04,266.493,264.974,267.303,263.94z"/>
				</defs>
				<clipPath id="SVGID_00000040556423319293204590000018292826173830252988_">
					<use xlink:href="#SVGID_00000015353748258411866400000008010982800835618714_"  style="overflow:visible;"/>
				</clipPath>
				<path style="clip-path:url(#SVGID_00000040556423319293204590000018292826173830252988_);" d="M263.113,240.929
					c-1.3,0.796-2.761,1.328-4.269,1.551c-1.629,0.24-3.296,0.124-4.92,0.396c-0.285,0.048-0.616,0.148-0.705,0.423
					c-0.069,0.213,0.047,0.447,0.208,0.603c0.673,0.653,1.953,0.324,2.554,1.043c0.272,0.326,0.322,0.785,0.553,1.141
					c0.457,0.706,1.452,0.799,2.286,0.687c1.099-0.147,2.179-0.238,3.274-0.047c0.776,0.135,1.269,0.398,2.073,0.282
					c1.578-0.227,1.878-1.551,1.348-2.864c-0.067-0.165-0.15-0.327-0.17-0.504c-0.034-0.297,0.115-0.582,0.264-0.841
					c0.255-0.439,0.533-0.88,0.626-1.379c0.094-0.499-0.046-1.081-0.474-1.353c-0.337-0.215-0.781-0.193-1.155-0.052
					c-0.374,0.141-0.697,0.387-1.028,0.612C263.427,240.732,263.271,240.833,263.113,240.929z"/>
			</g>
			<path style="fill:#E36D78;" d="M293.355,414.086c0.009,0.027,0.018,0.053,0.027,0.08c0.933,2.751,2.655,5.286,4.11,7.779
				c1.246,2.134,2.315,4.372,3.193,6.683c0.56,1.475,1.87,4.334,0.736,5.858c-0.366,0.491-1.028,0.691-1.638,0.644
				c-0.611-0.046-1.184-0.302-1.734-0.573c0.323,1.772-1.004,4.084-3.01,3.545c-0.746-0.2-1.374-0.792-1.62-1.524
				c0.271,1.124-0.48,2.395-1.595,2.699c-1.115,0.304-2.408-0.41-2.744-1.516c0.129,0.766,0.165,1.548,0.108,2.322
				c-0.064,0.86-0.334,1.833-1.116,2.197c-0.528,0.245-1.155,0.138-1.696-0.078c-2.579-1.034-3.323-3.935-3.732-6.41
				c-0.194-1.176-0.6-2.305-1.004-3.427c-1.287-3.577-2.574-7.154-3.862-10.731c-0.778-2.163-1.576-4.362-2.957-6.199
				c-2.169-2.887-5.18-4.68-5.821-8.476c-0.53-3.141,1.396-6.093,2.839-8.932c3.999-7.866,4.64-16.94,6.589-25.547
				c1.047-4.619,2.642-9.397,6.212-12.508c1.273-1.109,2.82-1.985,4.502-2.126c2.468-0.208,4.866,1.231,6.345,3.217
				c1.48,1.986,2.171,4.449,2.586,6.891c1.145,6.733,0.976,15.432-1.92,21.718c-1.942,4.215-3.884,8.431-5.826,12.646
				c-0.217,0.47-0.438,0.959-0.437,1.477c0.001,0.538,0.241,1.043,0.468,1.531C291.685,408.181,292.359,411.132,293.355,414.086z"/>
			<path style="fill:#61BA89;" d="M286.048,299.721c4.312-4.508,11.757-11.848,19.008-11.426
				c4.697,0.273,13.594,6.263,16.088,10.107c1.452,2.238,1.879,4.908,2.192,7.506c3.238,26.911-2.64,53.97-8.489,80.497
				c-0.251,1.138-0.551,2.358-1.484,3.129c-0.938,0.775-2.284,0.905-3.534,0.993c-14.902,1.051-35.543,3.226-45.05-1.995
				c0.041-1.797,1.949-20.896-0.597-20.896c-3.846-7.539-12.512-9.318-20.211-13.351c10.384-13.509,23.037-30.733,33.421-44.242
				C279.538,307.252,282.524,303.405,286.048,299.721z"/>
			<path style="fill:none;stroke:#222221;stroke-linecap:round;stroke-linejoin:round;stroke-miterlimit:10;" d="M293.954,311.978
				c-4.025,3.353-6.967,7.817-8.356,12.676c-1.192,4.171-1.273,8.631-3.121,12.589c-1.615,3.458-4.462,6.278-6.518,9.528
				c-5.325,8.418-4.922,18.875-8.145,28.172c-1.298,3.741-3.185,7.292-4.395,11.059c-0.146,0.453-0.281,0.944-0.111,1.39
				c0.22,0.577,0.871,0.893,1.473,1.141c6.799,2.8,14.41,3.869,21.795,3.063"/>
			<path style="fill:none;stroke:#222221;stroke-linecap:round;stroke-linejoin:round;stroke-miterlimit:10;" d="M203.86,360.707
				c10.314,2.261,19.934,6.918,30.283,9.046c11.008,2.264,22.735,1.234,33.876,0.681"/>
			<path style="fill:none;stroke:#222221;stroke-linecap:round;stroke-linejoin:round;stroke-miterlimit:10;" d="M291.361,399.487
				c0.63-1.192,1.259-2.383,1.889-3.575c0.663-1.255,1.336-2.539,1.557-3.941"/>
			<g>
				<defs>
					<path id="SVGID_00000013151798303847187710000015436216728954828464_" d="M279.641,262.138
						c-0.021,0.22-6.001-1.066-6.534-1.214c-1.148-0.32-2.359-0.549-3.413-1.131c-1.17-0.646-2.067-1.797-3.019-2.72
						c-1.737,1.739-4.183,2.563-6.587,3.073c-5.047,1.071-10.334,0.998-15.349-0.213c-1.26-0.304-2.856-0.689-3.75-1.698
						c-0.944-1.067-1.285-1.394-2.915-1.045c-5.006,1.071-9.921,2.565-14.676,4.46c0.785-0.313,3.244,2.126,3.728,2.64
						c1.1,1.168,2.173,2.344,3.164,3.616c1.802,2.313,3.059,4.823,2.903,7.803c-0.163,3.112-0.975,6.222-2.207,9.089
						c-1.575,3.664-3.825,5.423-6.929,7.728c-3.159,2.345-2.505,5.026-2.539,8.775c-0.049,6.307-1.029,12.504-2.003,18.717
						c-0.84,5.359-0.561,11.15-0.939,16.629c-0.073,1.059-0.189,2.216-0.937,2.969c-0.414,0.416-0.981,0.66-1.371,1.099
						c-0.39,0.439-0.503,1.236-0.002,1.543c3.203,0.514,6.458,1.044,9.38,2.453c2.546,1.228,4.742,3.078,7.232,4.414
						c4.893,2.626,10.66,3.128,16.204,2.822c5.545-0.307,11.028-1.366,16.573-1.65c3.961-0.203,7.994-0.018,11.828-1.037
						c3.033-0.806,5.816-2.335,8.564-3.849c1.654-0.911,3.308-1.823,4.961-2.734c0.881-0.485,1.82-1.032,2.226-1.952
						c0.48-1.086-1.146-3.737-1.273-5.1c-0.259-2.768-0.487-5.537-0.988-8.275c-0.482-2.63-1.188-5.214-1.682-7.842
						c-0.974-5.174-1.117-10.464-1.256-15.727c-0.09-3.419-0.305-7.279-1.188-10.61c-1.093-4.124-3.814-8.13-5.722-11.927
						c-1.318-2.624-2.641-5.258-3.611-8.03c-0.715-2.041-1.445-3.924-0.821-6.004C277.221,265.45,279.47,263.917,279.641,262.138z"
						/>
				</defs>
				<clipPath id="SVGID_00000145752649137466825300000004909135702704882851_">
					<use xlink:href="#SVGID_00000013151798303847187710000015436216728954828464_"  style="overflow:visible;"/>
				</clipPath>
				<path style="clip-path:url(#SVGID_00000145752649137466825300000004909135702704882851_);" d="M267.207,259.042
					c-0.809,0.768-1.846,1.247-2.889,1.639c-1.376,0.516-2.8,0.904-4.247,1.157c-1.936,0.338-3.962,0.448-5.716,1.335
					c-0.132,0.066-0.271,0.147-0.327,0.283c-0.153,0.369,0.38,0.628,0.779,0.659c2.363,0.184,4.725-0.309,7.024-0.884
					c1.611-0.403,3.212-0.849,4.813-1.294c1.123-0.313,2.257-0.63,3.279-1.19c0.746-0.409,1.422-0.944,1.992-1.576
					c0.741-0.821,1.297-2.083,0.673-2.996c-0.349-0.511-0.984-0.754-1.599-0.825c-0.883-0.102-2.096-0.018-2.461,0.894
					C268.099,257.307,268.121,258.174,267.207,259.042z"/>
			</g>
			<path style="fill:none;stroke:#222221;stroke-linecap:round;stroke-linejoin:round;stroke-miterlimit:10;" d="M173.172,383.543
				c5.218,4.67,10.746,8.993,16.536,12.931"/>
			<path style="fill:none;stroke:#222221;stroke-linecap:round;stroke-linejoin:round;stroke-miterlimit:10;" d="M196.085,397.118
				c6.254,0.287,12.514,0.424,18.774,0.41"/>
			<path style="fill:none;stroke:#222221;stroke-linecap:round;stroke-linejoin:round;stroke-miterlimit:10;" d="M243.003,355.359
				c1.555-2.134,3.111-4.268,4.666-6.401"/>
			<path style="fill:none;stroke:#222221;stroke-linecap:round;stroke-linejoin:round;stroke-miterlimit:10;" d="M250.834,353.267
				c2.901-5.166,6.197-10.109,9.852-14.771"/>
			<path style="fill:none;stroke:#222221;stroke-linecap:round;stroke-linejoin:round;stroke-miterlimit:10;" d="M217.111,346.737
				c2.778,0.656,5.489,1.597,8.077,2.802"/>
			<path style="fill:none;stroke:#222221;stroke-linecap:round;stroke-linejoin:round;stroke-miterlimit:10;" d="M277.177,399.096
				c-0.639,1.089-1.288,2.201-1.553,3.435c-0.265,1.234-0.087,2.633,0.77,3.561"/>
			<path style="fill:none;stroke:#222221;stroke-linecap:round;stroke-linejoin:round;stroke-miterlimit:10;" d="M313.052,415.707
				c-0.459-1.127-0.841-2.286-1.144-3.465"/>
			<path style="fill:none;stroke:#222221;stroke-linecap:round;stroke-linejoin:round;stroke-miterlimit:10;" d="M288.924,438.053
				c0.011-1.117-0.19-2.237-0.591-3.28"/>
			<path style="fill:none;stroke:#222221;stroke-linecap:round;stroke-linejoin:round;stroke-miterlimit:10;" d="M269.876,224.336
				c-0.617-0.362-1.419-0.341-2.06-0.023c-0.641,0.319-1.124,0.907-1.398,1.569"/>
			<path style="fill:none;stroke:#222221;stroke-linecap:round;stroke-linejoin:round;stroke-miterlimit:10;" d="M239.186,224.124
				c0.733-0.24,1.602,0.014,2.09,0.611c0.488,0.597,0.564,1.499,0.182,2.17"/>
		</g>
		<g style="clip-path:url(#SVGID_00000150096197621140654510000008009585905559378873_);">
			<polyline style="fill:none;stroke:#000000;stroke-miterlimit:10;" points="172.082,97.975 172.082,68.336 200.898,68.336 
				200.898,87.272 			"/>
			<polyline style="fill:none;stroke:#000000;stroke-miterlimit:10;" points="202.544,135.846 202.544,97.975 238.769,97.975 			"/>
			<line style="fill:none;stroke:#000000;stroke-miterlimit:10;" x1="144.914" y1="97.975" x2="200.798" y2="97.975"/>
			<circle style="fill:#E36D78;" cx="144.914" cy="97.975" r="16.466"/>
			<circle style="fill:#E36D78;" cx="200.798" cy="97.975" r="16.466"/>
			<text transform="matrix(1 0 0 1 138.0538 104.8242)" style="font-family:'MyriadPro-Regular'; font-size:21.8453px;">A</text>
			<text transform="matrix(1 0 0 1 194.9503 104.8242)" style="font-family:'MyriadPro-Regular'; font-size:21.8453px;">B</text>
			<path d="M242.062,97.975c0,1.819-1.474,3.293-3.293,3.293c-1.819,0-3.293-1.474-3.293-3.293c0-1.819,1.474-3.293,3.293-3.293
				C240.588,94.682,242.062,96.156,242.062,97.975z"/>
			<path d="M205.837,135.846c0,1.819-1.474,3.293-3.293,3.293s-3.293-1.474-3.293-3.293c0-1.819,1.474-3.293,3.293-3.293
				S205.837,134.027,205.837,135.846z"/>
		</g>
		<g style="clip-path:url(#SVGID_00000150096197621140654510000008009585905559378873_);">
			<circle style="fill:#E8B5B5;" cx="405.83" cy="121.907" r="44.768"/>
			<g>
				<g>
					<circle style="fill:#2775D9;" cx="405.83" cy="121.063" r="28.574"/>
					<g>
						<defs>
							<circle id="SVGID_00000145762526429866293970000011365520965632266373_" cx="405.83" cy="121.063" r="28.574"/>
						</defs>
						<clipPath id="SVGID_00000040547281863011987590000000171347242953831316_">
							<use xlink:href="#SVGID_00000145762526429866293970000011365520965632266373_"  style="overflow:visible;"/>
						</clipPath>
						<g style="clip-path:url(#SVGID_00000040547281863011987590000000171347242953831316_);">
							
								<line style="fill:none;stroke:#E36D78;stroke-linecap:round;stroke-miterlimit:10;" x1="405.83" y1="88.182" x2="405.83" y2="151.814"/>
							
								<line style="fill:none;stroke:#E36D78;stroke-linecap:round;stroke-miterlimit:10;" x1="434.565" y1="121.385" x2="377.249" y2="121.175"/>
							
								<line style="fill:none;stroke:#FFFFFF;stroke-width:0.5;stroke-linecap:round;stroke-miterlimit:10;" x1="396.079" y1="90.823" x2="396.079" y2="151.568"/>
							
								<line style="fill:none;stroke:#FFFFFF;stroke-width:0.5;stroke-linecap:round;stroke-miterlimit:10;" x1="426.057" y1="90.823" x2="426.057" y2="151.568"/>
							
								<line style="fill:none;stroke:#FFFFFF;stroke-width:0.5;stroke-linecap:round;stroke-miterlimit:10;" x1="415.209" y1="90.823" x2="415.209" y2="151.568"/>
							
								<line style="fill:none;stroke:#FFFFFF;stroke-width:0.5;stroke-linecap:round;stroke-miterlimit:10;" x1="386.217" y1="90.823" x2="386.217" y2="151.568"/>
							
								<line style="fill:none;stroke:#FFFFFF;stroke-width:0.5;stroke-linecap:round;stroke-miterlimit:10;" x1="375.765" y1="131.254" x2="436.51" y2="131.254"/>
							
								<line style="fill:none;stroke:#FFFFFF;stroke-width:0.5;stroke-linecap:round;stroke-miterlimit:10;" x1="375.765" y1="101.276" x2="436.51" y2="101.276"/>
							
								<line style="fill:none;stroke:#FFFFFF;stroke-width:0.5;stroke-linecap:round;stroke-miterlimit:10;" x1="375.765" y1="112.123" x2="436.51" y2="112.123"/>
							
								<line style="fill:none;stroke:#FFFFFF;stroke-width:0.5;stroke-linecap:round;stroke-miterlimit:10;" x1="375.765" y1="141.115" x2="436.51" y2="141.115"/>
						</g>
					</g>
				</g>
				
					<ellipse style="fill:none;stroke:#E36D78;stroke-linecap:round;stroke-miterlimit:10;" cx="405.83" cy="121.063" rx="37.941" ry="29.845"/>
				
					<ellipse style="fill:none;stroke:#E36D78;stroke-linecap:round;stroke-miterlimit:10;" cx="405.83" cy="121.063" rx="44.387" ry="29.845"/>
				<polygon style="fill:#E36D78;" points="365.726,117.248 367.777,122.212 370.995,118.605 				"/>
				<path style="fill:#E36D78;" d="M367.882,133.01c1.334,0.552,2.669,1.103,4.003,1.655c0.28-1.34,0.56-2.679,0.84-4.019
					L367.882,133.01z"/>
				<path style="fill:#E36D78;" d="M441.12,105.146c-0.022,1.542-0.004,3.61-0.026,5.152c-0.696-0.412-3.838-2.269-4.796-2.593
					L441.12,105.146z"/>
				<path style="fill:#E36D78;" d="M441.168,119.388c0.94,1.218,1.784,2.511,2.521,3.861c0.994-1.251,1.988-2.502,2.981-3.752
					L441.168,119.388z"/>
				<path style="fill:#E36D78;" d="M438.309,132.141c-0.173,1.397-0.231,3.467-0.269,4.874c1.615-0.841,3.23-1.683,4.844-2.528
					L438.309,132.141z"/>
			</g>
		</g>
		<g style="clip-path:url(#SVGID_00000150096197621140654510000008009585905559378873_);">
			
				<ellipse transform="matrix(0.1602 -0.9871 0.9871 0.1602 -151.6289 327.7915)" style="fill:#E8B5B5;" cx="116.822" cy="253.005" rx="44.768" ry="44.768"/>
			<g>
				<g>
					<g>
						<path style="fill:#E36D78;" d="M129.29,289.329c-2.76,0-4.997-7.084-4.997-15.823c0-8.739,2.237-15.823,4.997-15.823H92.014
							h-0.109c-2.76,0-4.997,7.084-4.997,15.823c0,8.739,2.237,15.823,4.997,15.823h0.109H129.29z"/>
					</g>
					<g>
						<path style="fill:none;stroke:#030402;stroke-miterlimit:10;" d="M141.063,289.329H86.099h-0.109
							c-2.76,0-4.997-7.084-4.997-15.823c0-8.739,2.237-15.823,4.997-15.823h0.109h54.965"/>
						<path style="fill:none;stroke:#030402;stroke-miterlimit:10;" d="M146.023,276.589c-0.453,7.263-2.476,12.741-4.902,12.741
							c-2.76,0-4.997-7.084-4.997-15.823c0-8.739,2.237-15.823,4.997-15.823c2.403,0,4.41,5.373,4.889,12.533"/>
					</g>
					<g>
						<path style="fill:none;stroke:#030402;stroke-miterlimit:10;" d="M151.667,276.504h-10.704h-0.021
							c-0.537,0-0.973-1.38-0.973-3.081c0-1.702,0.436-3.081,0.973-3.081h0.021h10.704"/>
						<path style="fill:none;stroke:#030402;stroke-miterlimit:10;" d="M152.651,273.423c0,1.702-0.436,3.081-0.973,3.081
							c-0.538,0-0.973-1.38-0.973-3.081c0-1.702,0.436-3.081,0.973-3.081C152.215,270.342,152.651,271.721,152.651,273.423z"/>
					</g>
					<g>
						<path style="fill:#FFFFFF;" d="M91.706,268.787c0,0.521-0.423,0.944-0.944,0.944s-0.944-0.422-0.944-0.944
							s0.423-0.944,0.944-0.944S91.706,268.266,91.706,268.787z"/>
						<path style="fill:#FFFFFF;" d="M101.422,269.897c0,0.521-0.423,0.944-0.944,0.944c-0.521,0-0.944-0.423-0.944-0.944
							s0.423-0.944,0.944-0.944C100.999,268.954,101.422,269.376,101.422,269.897z"/>
						<path style="fill:#FFFFFF;" d="M94.76,262.513c0,0.521-0.423,0.944-0.944,0.944c-0.521,0-0.944-0.423-0.944-0.944
							c0-0.521,0.423-0.944,0.944-0.944C94.337,261.569,94.76,261.992,94.76,262.513z"/>
						<circle style="fill:#FFFFFF;" cx="117.356" cy="267.677" r="0.944"/>
						<path style="fill:#FFFFFF;" d="M121.298,274.783c0,0.521-0.423,0.944-0.944,0.944s-0.944-0.423-0.944-0.944
							c0-0.521,0.423-0.944,0.944-0.944S121.298,274.262,121.298,274.783z"/>
						<path style="fill:#FFFFFF;" d="M113.692,261.569c0,0.521-0.423,0.944-0.944,0.944c-0.521,0-0.944-0.423-0.944-0.944
							s0.423-0.944,0.944-0.944C113.269,260.626,113.692,261.048,113.692,261.569z"/>
						<path style="fill:#FFFFFF;" d="M124.685,263.79c0,0.521-0.423,0.944-0.944,0.944c-0.521,0-0.944-0.422-0.944-0.944
							s0.423-0.944,0.944-0.944C124.262,262.846,124.685,263.269,124.685,263.79z"/>
						<path style="fill:#FFFFFF;" d="M113.803,273.562c0,0.521-0.423,0.944-0.944,0.944s-0.944-0.423-0.944-0.944
							s0.423-0.944,0.944-0.944S113.803,273.04,113.803,273.562z"/>
						<path style="fill:#FFFFFF;" d="M100.256,282.889c0,0.521-0.423,0.944-0.944,0.944s-0.944-0.423-0.944-0.944
							c0-0.521,0.423-0.944,0.944-0.944S100.256,282.368,100.256,282.889z"/>
						<path style="fill:#FFFFFF;" d="M110.25,284.388c0,0.521-0.423,0.944-0.944,0.944s-0.944-0.423-0.944-0.944
							c0-0.521,0.423-0.944,0.944-0.944S110.25,283.867,110.25,284.388z"/>
						<path style="fill:#FFFFFF;" d="M96.592,274.783c0,0.521-0.423,0.944-0.944,0.944c-0.521,0-0.944-0.423-0.944-0.944
							c0-0.521,0.423-0.944,0.944-0.944C96.169,273.839,96.592,274.262,96.592,274.783z"/>
						<circle style="fill:#FFFFFF;" cx="91.817" cy="284.888" r="0.944"/>
						<path style="fill:#FFFFFF;" d="M91.928,278.115c0,0.521-0.423,0.944-0.944,0.944s-0.944-0.423-0.944-0.944
							c0-0.521,0.423-0.944,0.944-0.944S91.928,277.593,91.928,278.115z"/>
						<path style="fill:#FFFFFF;" d="M102.477,260.681c0,0.521-0.423,0.944-0.944,0.944c-0.521,0-0.944-0.423-0.944-0.944
							c0-0.521,0.423-0.944,0.944-0.944C102.054,259.737,102.477,260.16,102.477,260.681z"/>
						<path style="fill:#FFFFFF;" d="M105.586,276.282c0,0.521-0.423,0.944-0.944,0.944c-0.521,0-0.944-0.423-0.944-0.944
							s0.423-0.944,0.944-0.944C105.163,275.339,105.586,275.761,105.586,276.282z"/>
						<path style="fill:#FFFFFF;" d="M109.084,266.677c0,0.521-0.423,0.944-0.944,0.944s-0.944-0.423-0.944-0.944
							c0-0.521,0.423-0.944,0.944-0.944S109.084,266.156,109.084,266.677z"/>
						<path style="fill:#FFFFFF;" d="M116.69,280.446c0,0.521-0.423,0.944-0.944,0.944c-0.521,0-0.944-0.423-0.944-0.944
							s0.423-0.944,0.944-0.944C116.268,279.503,116.69,279.925,116.69,280.446z"/>
						<path style="fill:#FFFFFF;" d="M123.075,285.887c0,0.521-0.423,0.944-0.944,0.944c-0.521,0-0.944-0.423-0.944-0.944
							c0-0.521,0.423-0.944,0.944-0.944C122.652,284.943,123.075,285.366,123.075,285.887z"/>
					</g>
					<g>
						<path style="fill:none;stroke:#030402;stroke-miterlimit:10;" d="M92.014,289.329h-0.109c-2.76,0-4.997-7.084-4.997-15.823
							c0-8.739,2.237-15.823,4.997-15.823h0.109"/>
						<path style="fill:none;stroke:#030402;stroke-miterlimit:10;" d="M129.29,289.329c-2.76,0-4.997-7.084-4.997-15.823
							c0-8.739,2.237-15.823,4.997-15.823"/>
					</g>
				</g>
				<path style="fill:#E36D78;" d="M104.675,232.533c0-8.739,2.237-15.823,4.997-15.823H92.014h-0.109
					c-2.76,0-4.997,7.084-4.997,15.823c0,8.739,2.237,15.823,4.997,15.823h0.109h17.657
					C106.912,248.356,104.675,241.271,104.675,232.533z"/>
				<g>
					<path style="fill:none;stroke:#030402;stroke-miterlimit:10;" d="M141.063,248.356H86.099h-0.109
						c-2.76,0-4.997-7.084-4.997-15.823c0-8.739,2.237-15.823,4.997-15.823h0.109h54.965"/>
					<path style="fill:none;stroke:#030402;stroke-miterlimit:10;" d="M146.019,233.619c0.004,2.032-0.118,4.065-0.44,6.071
						c-0.825,5.142-2.511,8.665-4.458,8.665c-2.76,0-4.997-7.084-4.997-15.823c0-8.739,2.237-15.823,4.997-15.823
						c1.923,0,3.592,3.439,4.427,8.48c0.332,2.003,0.461,4.034,0.465,6.064L146.019,233.619z"/>
				</g>
				<g>
					<g>
						<path style="fill:none;stroke:#030402;stroke-miterlimit:10;" d="M125.74,235.586c-0.453,7.263-2.475,12.741-4.902,12.741
							c-2.76,0-4.997-7.084-4.997-15.823c0-8.739,2.237-15.823,4.997-15.823c2.403,0,4.41,5.373,4.889,12.533"/>
					</g>
					<g>
						<path style="fill:none;stroke:#030402;stroke-miterlimit:10;" d="M131.384,235.502H120.68h-0.021
							c-0.537,0-0.973-1.38-0.973-3.081c0-1.702,0.436-3.081,0.973-3.081h0.021h10.704"/>
						<path style="fill:none;stroke:#030402;stroke-miterlimit:10;" d="M132.368,232.42c0,1.702-0.436,3.081-0.973,3.081
							s-0.973-1.38-0.973-3.081c0-1.702,0.436-3.081,0.973-3.081S132.368,230.719,132.368,232.42z"/>
					</g>
				</g>
				<g>
					<path style="fill:#FFFFFF;" d="M91.706,227.813c0,0.521-0.423,0.944-0.944,0.944s-0.944-0.423-0.944-0.944
						c0-0.521,0.423-0.944,0.944-0.944S91.706,227.292,91.706,227.813z"/>
					<path style="fill:#FFFFFF;" d="M102.533,226.925c0,0.521-0.423,0.944-0.944,0.944c-0.521,0-0.944-0.423-0.944-0.944
						s0.423-0.944,0.944-0.944C102.11,225.981,102.533,226.404,102.533,226.925z"/>
					<path style="fill:#FFFFFF;" d="M94.76,221.54c0,0.521-0.423,0.944-0.944,0.944c-0.521,0-0.944-0.423-0.944-0.944
						c0-0.521,0.423-0.944,0.944-0.944C94.337,220.596,94.76,221.018,94.76,221.54z"/>
					<path style="fill:#FFFFFF;" d="M102.033,243.359c0,0.521-0.423,0.944-0.944,0.944c-0.521,0-0.944-0.423-0.944-0.944
						c0-0.521,0.423-0.944,0.944-0.944C101.61,242.415,102.033,242.838,102.033,243.359z"/>
					<path style="fill:#FFFFFF;" d="M96.592,233.809c0,0.521-0.423,0.944-0.944,0.944c-0.521,0-0.944-0.423-0.944-0.944
						c0-0.521,0.423-0.944,0.944-0.944C96.169,232.866,96.592,233.288,96.592,233.809z"/>
					<path style="fill:#FFFFFF;" d="M94.704,244.192c0,0.521-0.423,0.944-0.944,0.944s-0.944-0.423-0.944-0.944
						c0-0.521,0.423-0.944,0.944-0.944S94.704,243.671,94.704,244.192z"/>
					<path style="fill:#FFFFFF;" d="M91.928,237.141c0,0.521-0.423,0.944-0.944,0.944s-0.944-0.423-0.944-0.944
						s0.423-0.944,0.944-0.944S91.928,236.619,91.928,237.141z"/>
					<path style="fill:#FFFFFF;" d="M100.922,221.54c0,0.521-0.423,0.944-0.944,0.944c-0.521,0-0.944-0.423-0.944-0.944
						c0-0.521,0.423-0.944,0.944-0.944C100.5,220.596,100.922,221.018,100.922,221.54z"/>
					<path style="fill:#FFFFFF;" d="M102.255,236.419c0,0.521-0.423,0.944-0.944,0.944c-0.521,0-0.944-0.423-0.944-0.944
						c0-0.521,0.423-0.944,0.944-0.944C101.832,235.475,102.255,235.898,102.255,236.419z"/>
				</g>
				<g>
					<path style="fill:none;stroke:#030402;stroke-miterlimit:10;" d="M92.014,248.356h-0.109c-2.76,0-4.997-7.084-4.997-15.823
						c0-8.739,2.237-15.823,4.997-15.823h0.109"/>
					<path style="fill:none;stroke:#030402;stroke-miterlimit:10;" d="M109.768,248.356c-2.76,0-4.997-7.084-4.997-15.823
						c0-8.739,2.237-15.823,4.997-15.823"/>
				</g>
			</g>
		</g>
		<g style="clip-path:url(#SVGID_00000150096197621140654510000008009585905559378873_);">
			
				<ellipse transform="matrix(0.2206 -0.9754 0.9754 0.2206 33.1294 538.7343)" style="fill:#E8B5B5;" cx="353.644" cy="248.638" rx="44.768" ry="44.768"/>
			<g>
				<g>
					<rect x="316.81" y="248.472" style="fill:#E36D78;" width="74.412" height="25.713"/>
					<g>
						
							<text transform="matrix(1 0 0 1 323.851 264.1189)" style="font-family:'Roboto-Regular'; font-size:10.9272px; letter-spacing:2;">U=</text>
						
							<text transform="matrix(1 0 0 1 366.6933 264.3767)" style="font-family:'Roboto-Regular'; font-size:10.9272px; letter-spacing:2;">RT</text>
						
							<text transform="matrix(1 0 0 1 343.7143 258.0818)" style="font-family:'Roboto-Regular'; font-size:10.9272px; letter-spacing:2;">i</text>
						
							<text transform="matrix(1 0 0 1 341.9721 270.6453)" style="font-family:'Roboto-Regular'; font-size:10.9272px; letter-spacing:2;">2</text>
						<line style="fill:none;stroke:#000000;stroke-miterlimit:10;" x1="342.8" y1="260.134" x2="349.466" y2="260.134"/>
						<line style="fill:none;stroke:#000000;stroke-miterlimit:10;" x1="351.294" y1="260.134" x2="364.113" y2="260.134"/>
						
							<text transform="matrix(1 0 0 1 351.8217 257.9421)" style="font-family:'Roboto-Regular'; font-size:10.9272px; letter-spacing:2;">m</text>
						
							<text transform="matrix(1 0 0 1 351.8403 270.6462)" style="font-family:'Roboto-Regular'; font-size:10.9272px; letter-spacing:2;">M</text>
					</g>
				</g>
				<g>
					<rect x="312.514" y="227.337" style="fill:#E36D78;" width="83.005" height="14.61"/>
					<g>
						
							<text transform="matrix(1 0 0 1 317.1078 237.8728)" style="font-family:'Roboto-Regular'; font-size:11.2281px; letter-spacing:2;">A= -p(V-V)</text>
					</g>
				</g>
			</g>
		</g>
		<g style="clip-path:url(#SVGID_00000150096197621140654510000008009585905559378873_);">
			
				<ellipse transform="matrix(0.1615 -0.9869 0.9869 0.1615 171.1259 365.9199)" style="fill:#E8B5B5;" cx="300.902" cy="82.254" rx="44.768" ry="44.768"/>
			<g>
				<g>
					<path style="fill:#E36D78;" d="M307.085,78.804c-1.342-2.544-4.698-3.462-7.526-2.7c-2.693,0.725-4.984,3-5.006,5.66
						c0,0.043,0.006,0.085,0.007,0.127c-0.01,0.049-0.026,0.098-0.035,0.147c-0.496,2.803,1.68,5.192,4.423,6.139
						c2.455,0.848,5.656,0.336,7.34-1.596C308.134,84.463,308.355,81.213,307.085,78.804z"/>
				</g>
				<ellipse style="fill:none;stroke:#000000;stroke-miterlimit:10;" cx="300.902" cy="82.254" rx="35.151" ry="10.131"/>
				<path style="fill:none;stroke:#000000;stroke-miterlimit:10;" d="M321.515,53.782c4.532,3.281-1.022,18.688-12.407,34.413
					s-24.287,25.813-28.819,22.532c-4.532-3.281,1.022-18.688,12.407-34.413C304.08,60.589,316.983,50.501,321.515,53.782z"/>
				<path style="fill:none;stroke:#000000;stroke-miterlimit:10;" d="M320.981,111.106c-4.592,3.196-17.305-7.13-28.394-23.064
					c-11.089-15.934-16.356-31.442-11.764-34.638c4.592-3.196,17.305,7.13,28.394,23.064
					C320.307,92.401,325.574,107.91,320.981,111.106z"/>
			</g>
		</g>
		<g style="clip-path:url(#SVGID_00000150096197621140654510000008009585905559378873_);">
			
				<line style="fill:none;stroke:#FFFFFF;stroke-width:4;stroke-miterlimit:10;" x1="279.504" y1="134.437" x2="326.698" y2="134.437"/>
			
				<line style="fill:none;stroke:#FFFFFF;stroke-width:4;stroke-miterlimit:10;" x1="279.504" y1="143.306" x2="312.698" y2="143.306"/>
		</g>
		<g style="clip-path:url(#SVGID_00000150096197621140654510000008009585905559378873_);">
			<g>
				<g>
					<g>
						<path style="fill:#E36D78;" d="M82.705,172.326c-11.814,0-21.426-9.612-21.426-21.426v-23.816h10.668V150.9
							c0,5.932,4.826,10.757,10.757,10.757c5.932,0,10.757-4.826,10.757-10.757v-23.816h10.668V150.9
							C104.131,162.714,94.519,172.326,82.705,172.326z"/>
					</g>
					<g>
						<path style="fill:#2775D9;" d="M82.776,161.656c-0.024,0-0.048,0.002-0.072,0.002c-5.932,0-10.757-4.826-10.757-10.757
							v-23.816H61.279V150.9c0,11.814,9.612,21.426,21.426,21.426c0.024,0,0.048-0.002,0.072-0.002V161.656z"/>
					</g>
				</g>
				
					<line style="fill:none;stroke:#2775D9;stroke-width:2;stroke-linecap:round;stroke-miterlimit:10;" x1="61.319" y1="117.556" x2="72.163" y2="117.556"/>
				<g>
					
						<line style="fill:none;stroke:#D16C79;stroke-width:2;stroke-linecap:round;stroke-linejoin:round;stroke-miterlimit:10;" x1="93.377" y1="117.556" x2="104.221" y2="117.556"/>
					
						<line style="fill:none;stroke:#D16C79;stroke-width:2;stroke-linecap:round;stroke-linejoin:round;stroke-miterlimit:10;" x1="98.799" y1="122.978" x2="98.799" y2="112.134"/>
				</g>
			</g>
			<g>
				
					<line style="fill:none;stroke:#FFFFFF;stroke-width:4;stroke-miterlimit:10;" x1="117.807" y1="185.804" x2="160.082" y2="185.804"/>
				
					<line style="fill:none;stroke:#FFFFFF;stroke-width:4;stroke-miterlimit:10;" x1="117.807" y1="194.077" x2="150.209" y2="194.077"/>
			</g>
		</g>
		<g style="clip-path:url(#SVGID_00000150096197621140654510000008009585905559378873_);">
			
				<line style="fill:none;stroke:#FFFFFF;stroke-width:4;stroke-miterlimit:10;" x1="166.519" y1="227.417" x2="210.554" y2="227.417"/>
			
				<line style="fill:none;stroke:#FFFFFF;stroke-width:4;stroke-miterlimit:10;" x1="166.971" y1="235.631" x2="211.005" y2="235.631"/>
			
				<line style="fill:none;stroke:#FFFFFF;stroke-width:4;stroke-miterlimit:10;" x1="166.971" y1="244.592" x2="211.005" y2="244.592"/>
		</g>
		<g style="clip-path:url(#SVGID_00000150096197621140654510000008009585905559378873_);">
			
				<line style="fill:none;stroke:#FFFFFF;stroke-width:4;stroke-miterlimit:10;" x1="405.282" y1="224.038" x2="442.58" y2="224.038"/>
			
				<line style="fill:none;stroke:#FFFFFF;stroke-width:4;stroke-miterlimit:10;" x1="405.562" y1="232.252" x2="432.86" y2="232.252"/>
		</g>
		<g style="clip-path:url(#SVGID_00000150096197621140654510000008009585905559378873_);">
			
				<line style="fill:none;stroke:#FFFFFF;stroke-width:4;stroke-miterlimit:10;" x1="389.218" y1="175.685" x2="433.253" y2="175.685"/>
			<line style="fill:none;stroke:#FFFFFF;stroke-width:4;stroke-miterlimit:10;" x1="389.67" y1="183.9" x2="426.705" y2="183.9"/>
		</g>
		<g style="clip-path:url(#SVGID_00000150096197621140654510000008009585905559378873_);">
			
				<line style="fill:none;stroke:#FFFFFF;stroke-width:4;stroke-miterlimit:10;" x1="149.99" y1="142.949" x2="188.126" y2="142.949"/>
			
				<line style="fill:none;stroke:#FFFFFF;stroke-width:4;stroke-miterlimit:10;" x1="150.381" y1="151.163" x2="175.527" y2="151.163"/>
		</g>
		<g style="clip-path:url(#SVGID_00000150096197621140654510000008009585905559378873_);">
			<rect x="208.908" y="153.724" style="fill:#2775D9;" width="21.678" height="13.014"/>
			<rect x="239.046" y="153.724" style="fill:#2775D9;" width="21.678" height="13.014"/>
			<rect x="269.185" y="153.724" style="fill:#2775D9;" width="21.678" height="13.014"/>
			<g>
				<rect x="208.908" y="171.817" style="fill:#2775D9;" width="21.678" height="13.014"/>
				<rect x="239.046" y="171.817" style="fill:#2775D9;" width="21.678" height="13.014"/>
				<rect x="269.185" y="171.817" style="fill:#2775D9;" width="21.678" height="13.014"/>
			</g>
		</g>
		
			<line style="clip-path:url(#SVGID_00000150096197621140654510000008009585905559378873_);fill:none;stroke:#D16C79;stroke-linecap:round;stroke-linejoin:round;stroke-miterlimit:10;" x1="183.888" y1="215.527" x2="234.944" y2="188.497"/>
		
			<line style="clip-path:url(#SVGID_00000150096197621140654510000008009585905559378873_);fill:none;stroke:#D16C79;stroke-linecap:round;stroke-linejoin:round;stroke-miterlimit:10;" x1="139.965" y1="161.843" x2="203.785" y2="178.736"/>
		
			<line style="clip-path:url(#SVGID_00000150096197621140654510000008009585905559378873_);fill:none;stroke:#D16C79;stroke-linecap:round;stroke-linejoin:round;stroke-miterlimit:10;" x1="218.051" y1="146.451" x2="213.546" y2="134.438"/>
		
			<line style="clip-path:url(#SVGID_00000150096197621140654510000008009585905559378873_);fill:none;stroke:#D16C79;stroke-linecap:round;stroke-linejoin:round;stroke-miterlimit:10;" x1="249.585" y1="146.451" x2="266.854" y2="120.923"/>
		
			<path style="clip-path:url(#SVGID_00000150096197621140654510000008009585905559378873_);fill:none;stroke:#D16C79;stroke-linecap:round;stroke-linejoin:round;stroke-miterlimit:10;" d="
			M296.136,158.464c1.126-0.375,61.568-11.638,61.568-11.638"/>
		
			<line style="clip-path:url(#SVGID_00000150096197621140654510000008009585905559378873_);fill:none;stroke:#D16C79;stroke-linecap:round;stroke-linejoin:round;stroke-miterlimit:10;" x1="279.618" y1="190.749" x2="311.153" y2="217.028"/>
		
			<path style="clip-path:url(#SVGID_00000150096197621140654510000008009585905559378873_);fill:none;stroke:#E8B5B5;stroke-linecap:round;stroke-miterlimit:10;" d="
			M50.871,187.799c-2.991,14.466-0.896,29.931,5.833,43.081"/>
		
			<path style="clip-path:url(#SVGID_00000150096197621140654510000008009585905559378873_);fill:none;stroke:#E8B5B5;stroke-linecap:round;stroke-miterlimit:10;" d="
			M54.815,206.046c-0.19,4.163,0.712,8.372,2.592,12.091"/>
		
			<path style="clip-path:url(#SVGID_00000150096197621140654510000008009585905559378873_);fill:none;stroke:#E8B5B5;stroke-linecap:round;stroke-miterlimit:10;" d="
			M67.76,245.748c-0.02-3.424,0.476-6.85,1.465-10.129"/>
		
			<path style="clip-path:url(#SVGID_00000150096197621140654510000008009585905559378873_);fill:none;stroke:#E8B5B5;stroke-linecap:round;stroke-miterlimit:10;" d="
			M121.842,86.66c-1.689,2.44-3.378,4.881-5.066,7.322"/>
		
			<path style="clip-path:url(#SVGID_00000150096197621140654510000008009585905559378873_);fill:none;stroke:#E8B5B5;stroke-linecap:round;stroke-miterlimit:10;" d="
			M256.05,58.031c-2.006,4.209-3.611,8.61-4.786,13.122"/>
		
			<path style="clip-path:url(#SVGID_00000150096197621140654510000008009585905559378873_);fill:none;stroke:#E8B5B5;stroke-linecap:round;stroke-miterlimit:10;" d="
			M251.081,80.19c-0.082,3.445,0.499,6.905,1.7,10.134"/>
		
			<path style="clip-path:url(#SVGID_00000150096197621140654510000008009585905559378873_);fill:none;stroke:#E8B5B5;stroke-linecap:round;stroke-miterlimit:10;" d="
			M374.87,82.788c-4.563,2.723-8.138,6.876-10.894,11.42c-2.756,4.543-4.753,9.497-6.737,14.427"/>
		
			<path style="clip-path:url(#SVGID_00000150096197621140654510000008009585905559378873_);fill:none;stroke:#E8B5B5;stroke-linecap:round;stroke-miterlimit:10;" d="
			M443.42,194.214c0.819,2.836,0.809,5.906-0.029,8.736"/>
		
			<path style="clip-path:url(#SVGID_00000150096197621140654510000008009585905559378873_);fill:none;stroke:#E8B5B5;stroke-linecap:round;stroke-miterlimit:10;" d="
			M444.498,183.528c1.39,4.945,2.168,10.063,2.312,15.197"/>
		
			<path style="clip-path:url(#SVGID_00000150096197621140654510000008009585905559378873_);fill:none;stroke:#E8B5B5;stroke-linecap:round;stroke-miterlimit:10;" d="
			M411.269,267.117c6.147-5.277,11.988-10.91,17.487-16.86"/>
		
			<path style="clip-path:url(#SVGID_00000150096197621140654510000008009585905559378873_);fill:none;stroke:#E8B5B5;stroke-linecap:round;stroke-miterlimit:10;" d="
			M341.467,177.047c1.891,3.867,4.157,7.55,6.757,10.981"/>
		<g style="clip-path:url(#SVGID_00000150096197621140654510000008009585905559378873_);">
			<g>
				<g>
					<path style="fill:#61BA89;" d="M362.688,321.396c0.206-4.175,0.292-8.935,2.468-12.644c3.044-5.19,9.577-4.235,12.483,0.708
						c2,3.402,2.344,7.52,2.236,11.465c-0.129,4.706-0.831,9.376-1.531,14.032c-0.831,5.521-5.458,12.852-11.445,7.377
						c-3.9-3.566-4.18-8.933-4.291-13.849C362.553,326.099,362.572,323.745,362.688,321.396z"/>
					<path style="fill:none;stroke:#222221;stroke-linecap:round;stroke-linejoin:round;stroke-miterlimit:10;" d="M368.552,305.296
						c-2.84,12.981-3.608,26.413-2.263,39.633"/>
					<path style="fill:none;stroke:#222221;stroke-linecap:round;stroke-linejoin:round;stroke-miterlimit:10;" d="M371.044,304.669
						c-0.282,1.967-0.297,3.963-0.269,5.951c0.159,11.436,1.68,23.076-1.081,34.175"/>
					<path style="fill:none;stroke:#222221;stroke-linecap:round;stroke-linejoin:round;stroke-miterlimit:10;" d="M374.135,305.611
						c4.499,12.691,4.331,26.979-0.465,39.561"/>
				</g>
				<path style="fill:#2775D9;" d="M363.574,365.793h13.214c4.224-2.182,7.256-6.393,7.742-11.42l1.497-15.475h-31.692l1.497,15.475
					C356.318,359.4,359.35,363.611,363.574,365.793z"/>
				<g>
					<defs>
						<path id="SVGID_00000081638158230677118350000006879254423217357757_" d="M363.574,365.793h13.214
							c4.224-2.182,7.256-6.393,7.742-11.42l1.497-15.475h-31.692l1.497,15.475C356.318,359.4,359.35,363.611,363.574,365.793z"/>
					</defs>
					<clipPath id="SVGID_00000003824021474582484040000015791022717911431072_">
						<use xlink:href="#SVGID_00000081638158230677118350000006879254423217357757_"  style="overflow:visible;"/>
					</clipPath>
					
						<path style="clip-path:url(#SVGID_00000003824021474582484040000015791022717911431072_);fill:none;stroke:#222221;stroke-linecap:round;stroke-linejoin:round;stroke-miterlimit:10;" d="
						M353.454,342.383c10.948,0.367,21.911,0.294,32.853-0.219"/>
					
						<path style="clip-path:url(#SVGID_00000003824021474582484040000015791022717911431072_);fill:none;stroke:#222221;stroke-linecap:round;stroke-linejoin:round;stroke-miterlimit:10;" d="
						M355.184,360.251c10.438,0.256,20.894-0.224,31.265-1.435"/>
					
						<path style="clip-path:url(#SVGID_00000003824021474582484040000015791022717911431072_);fill:none;stroke:#222221;stroke-linecap:round;stroke-linejoin:round;stroke-miterlimit:10;" d="
						M386.16,356.51c-9.059,0.248-18.117,0.496-27.176,0.743c-1.791,0.049-3.582,0.098-5.372,0.147"/>
				</g>
			</g>
			<g>
				<polygon style="fill:#61BA89;" points="88.97,366.614 114.249,366.614 108.275,334.469 82.996,334.469 				"/>
				<polygon points="86.311,366.751 90.256,366.751 99.547,348.081 95.603,348.081 				"/>
			</g>
			<g>
				
					<line style="fill:none;stroke:#000000;stroke-width:3;stroke-miterlimit:10;" x1="103.478" y1="367.437" x2="74.613" y2="545.189"/>
				
					<line style="fill:none;stroke:#000000;stroke-width:3;stroke-miterlimit:10;" x1="391.475" y1="367.247" x2="420.34" y2="545.189"/>
			</g>
			<g>
				<path d="M230.055,361.48c0-0.916-0.743-1.659-1.659-1.659H141.1c-1.17,0-2.119,0.743-2.119,1.659
					c0,0.916,0.949,1.659,2.119,1.659h87.296C229.312,363.139,230.055,362.397,230.055,361.48L230.055,361.48z"/>
				<path d="M136.324,363.139h79.688l-6.934-45.79c-0.241-1.589-1.59-2.776-3.158-2.776h-73.371c-1.894,0-3.32,1.708-3.029,3.628
					L136.324,363.139z"/>
				<path style="fill:#2775D9;" d="M167.513,336.912c0,1.45,1.176,2.626,2.626,2.626c1.45,0,2.626-1.176,2.626-2.626
					c0-1.45-1.176-2.626-2.626-2.626C168.689,334.286,167.513,335.462,167.513,336.912z"/>
			</g>
			<rect x="72.623" y="363.139" width="351.983" height="4.954"/>
			<g>
				<path style="fill:#E36D78;" d="M334.861,363.432h-58.598v-20.05h58.598c5.537,0,10.025,4.488,10.025,10.025l0,0
					C344.886,358.944,340.398,363.432,334.861,363.432z"/>
				<path style="fill:#F2D5D5;" d="M332.876,362.232H276.02v-17.325h56.857c4.663,0,8.443,3.78,8.443,8.444v0.437
					C341.32,358.452,337.54,362.232,332.876,362.232z"/>
				<line style="fill:none;stroke:#FFFFFF;stroke-miterlimit:10;" x1="276.101" y1="347.775" x2="339.135" y2="347.938"/>
				<line style="fill:none;stroke:#FFFFFF;stroke-miterlimit:10;" x1="276.101" y1="351.426" x2="340.676" y2="351.527"/>
				<line style="fill:none;stroke:#FFFFFF;stroke-miterlimit:10;" x1="276.101" y1="355.077" x2="341" y2="355.239"/>
				<line style="fill:none;stroke:#FFFFFF;stroke-miterlimit:10;" x1="276.101" y1="358.727" x2="339.135" y2="358.889"/>
				<path d="M338.567,346.841v13.457c1.684-1.455,2.753-3.601,2.753-6.001v-1.456C341.32,350.442,340.25,348.296,338.567,346.841z"
					/>
				<path style="fill:#2775D9;" d="M339.053,343.476h-70.767c-2.45,0-4.435-1.986-4.435-4.435l0,0c0-2.45,1.986-4.435,4.435-4.435
					h70.767V343.476z"/>
				<path style="fill:#F2D5D5;" d="M342.948,341.73h-72.513c-1.485,0-2.689-1.204-2.689-2.689l0,0c0-1.485,1.204-2.69,2.689-2.69
					h72.513V341.73z"/>
				<line style="fill:none;stroke:#FFFFFF;stroke-miterlimit:10;" x1="268.313" y1="337.716" x2="342.623" y2="337.878"/>
				<line style="fill:none;stroke:#FFFFFF;stroke-miterlimit:10;" x1="268.313" y1="340.15" x2="342.623" y2="340.312"/>
				<polygon points="334.861,343.383 276.209,342.989 276.128,350.777 				"/>
			</g>
		</g>
	</g>
</g>
</svg>
